<?xml version="1.0" encoding="UTF-8" standalone="no"?>
<!DOCTYPE svg PUBLIC "-//W3C//DTD SVG 1.1//EN" "http://www.w3.org/Graphics/SVG/1.1/DTD/svg11.dtd">
<svg width="100%" height="100%" viewBox="0 0 1080 1080" version="1.1" xmlns="http://www.w3.org/2000/svg" xmlns:xlink="http://www.w3.org/1999/xlink" xml:space="preserve" xmlns:serif="http://www.serif.com/" style="fill-rule:evenodd;clip-rule:evenodd;stroke-linejoin:round;stroke-miterlimit:2;">
    <g transform="matrix(2.07367,0,0,2.07367,-3310.18,-3908.71)">
        <g transform="matrix(1,0,0,1,127.386,0)">
            <path d="M1801.35,2026.6L1801.35,2251.07L1721.27,2280.77L1641.18,2251.07L1641.18,2026.6C1694.01,2006.8 1747.38,2006.44 1801.35,2026.6ZM1720.96,2212.21L1727.98,2212.21L1729.36,2202.78L1737.96,2202.78L1737.96,2202.65L1739.34,2212.21L1746.91,2212.21L1739.06,2164.03L1728.81,2164.03L1720.96,2212.21ZM1730.25,2196.25L1733.55,2172.43L1733.69,2172.43L1737.06,2196.25L1730.25,2196.25ZM1668.65,2148.1L1714.62,2148.1L1714.62,2133.64L1684.4,2133.64L1684.4,2131.48C1684.4,2124.39 1686.86,2119.33 1696.4,2109.21C1711.15,2093.6 1716.06,2082.9 1716.06,2070.91C1716.06,2054.71 1707.97,2045.46 1692.36,2045.46C1676.74,2045.46 1668.65,2054.71 1668.65,2070.91L1668.65,2080.74L1683.68,2080.74L1683.68,2069.89C1683.68,2062.66 1686.86,2059.92 1691.92,2059.92C1696.98,2059.92 1700.16,2062.38 1700.16,2071.48C1700.16,2080.88 1696.69,2088.54 1684.55,2101.41C1672.69,2113.84 1668.65,2122.66 1668.65,2137.12L1668.65,2148.1ZM1749.75,2149.55C1765.36,2149.55 1773.89,2140.3 1773.89,2124.1L1773.89,2070.91C1773.89,2054.71 1765.36,2045.46 1749.75,2045.46C1734.13,2045.46 1725.61,2054.71 1725.61,2070.91L1725.61,2124.1C1725.61,2140.3 1734.13,2149.55 1749.75,2149.55ZM1749.75,2135.09C1744.69,2135.09 1741.51,2132.34 1741.51,2125.12L1741.51,2069.89C1741.51,2062.66 1744.69,2059.92 1749.75,2059.92C1754.81,2059.92 1757.99,2062.66 1757.99,2069.89L1757.99,2125.12C1757.99,2132.34 1754.81,2135.09 1749.75,2135.09ZM1677.8,2212.21L1685.37,2212.21L1685.37,2191.7L1694.53,2164.03L1687.16,2164.03L1682,2181.72L1681.86,2181.72L1676.7,2164.03L1668.65,2164.03L1677.8,2191.7L1677.8,2212.21ZM1750.56,2212.21L1758.13,2212.21L1758.13,2191.57L1760.74,2191.57C1764.18,2191.57 1765.49,2193.01 1765.49,2197.49L1765.49,2206.3C1765.49,2210.22 1765.77,2210.97 1766.18,2212.21L1773.89,2212.21C1773.13,2210.43 1773.06,2208.7 1773.06,2206.36L1773.06,2197.9C1773.06,2192.46 1771.82,2188.88 1768.04,2187.71L1768.04,2187.57C1771.41,2186.2 1772.99,2183.03 1772.99,2178.07L1772.99,2175.12C1772.99,2167.68 1769.62,2164.03 1761.77,2164.03L1750.56,2164.03L1750.56,2212.21ZM1758.13,2184.68L1758.13,2170.92L1761.57,2170.92C1764.25,2170.92 1765.42,2172.43 1765.42,2175.87L1765.42,2179.59C1765.42,2183.44 1763.7,2184.68 1760.88,2184.68L1758.13,2184.68ZM1671.3,2246.92L1675.92,2246.92L1677.5,2232L1677.56,2232L1679.14,2246.92L1683.48,2246.92L1685.72,2224.79L1682.72,2224.79L1681.17,2241.8L1681.1,2241.8L1679.46,2224.79L1675.67,2224.79L1674.02,2241.8L1673.96,2241.8L1672.41,2224.79L1669.06,2224.79L1671.3,2246.92ZM1737.88,2246.92L1740.98,2246.92L1740.98,2230.76L1741.04,2230.76L1745.22,2246.92L1748.79,2246.92L1748.79,2224.79L1745.69,2224.79L1745.69,2238.03L1745.63,2238.03L1742.24,2224.79L1737.88,2224.79L1737.88,2246.92ZM1712.46,2246.92L1715.94,2246.92L1715.94,2237.43L1717.14,2237.43C1718.72,2237.43 1719.33,2238.1 1719.33,2240.15L1719.33,2244.2C1719.33,2246 1719.45,2246.35 1719.64,2246.92L1723.18,2246.92C1722.83,2246.1 1722.8,2245.3 1722.8,2244.23L1722.8,2240.34C1722.8,2237.84 1722.23,2236.2 1720.49,2235.66L1720.49,2235.6C1722.04,2234.97 1722.77,2233.51 1722.77,2231.24L1722.77,2229.88C1722.77,2226.46 1721.22,2224.79 1717.62,2224.79L1712.46,2224.79L1712.46,2246.92ZM1715.94,2234.27L1715.94,2227.95L1717.52,2227.95C1718.76,2227.95 1719.29,2228.64 1719.29,2230.22L1719.29,2231.93C1719.29,2233.7 1718.5,2234.27 1717.21,2234.27L1715.94,2234.27ZM1686.13,2246.92L1689.36,2246.92L1689.99,2242.59L1693.94,2242.59L1693.94,2242.52L1694.57,2246.92L1698.05,2246.92L1694.44,2224.79L1689.74,2224.79L1686.13,2246.92ZM1690.4,2239.58L1691.92,2228.64L1691.98,2228.64L1693.53,2239.58L1690.4,2239.58ZM1699.72,2246.92L1703.2,2246.92L1703.2,2237.43L1704.4,2237.43C1705.98,2237.43 1706.58,2238.1 1706.58,2240.15L1706.58,2244.2C1706.58,2246 1706.71,2246.35 1706.9,2246.92L1710.44,2246.92C1710.09,2246.1 1710.06,2245.3 1710.06,2244.23L1710.06,2240.34C1710.06,2237.84 1709.49,2236.2 1707.75,2235.66L1707.75,2235.6C1709.3,2234.97 1710.03,2233.51 1710.03,2231.24L1710.03,2229.88C1710.03,2226.46 1708.48,2224.79 1704.88,2224.79L1699.72,2224.79L1699.72,2246.92ZM1703.2,2234.27L1703.2,2227.95L1704.78,2227.95C1706.02,2227.95 1706.55,2228.64 1706.55,2230.22L1706.55,2231.93C1706.55,2233.7 1705.76,2234.27 1704.47,2234.27L1703.2,2234.27ZM1766.21,2246.92L1769.68,2246.92L1769.68,2237.5L1773.89,2224.79L1770.51,2224.79L1768.13,2232.91L1768.07,2232.91L1765.7,2224.79L1762,2224.79L1766.21,2237.5L1766.21,2246.92ZM1697.97,2212.21L1718.62,2212.21L1718.62,2205.33L1705.54,2205.33L1705.54,2190.53L1715.93,2190.53L1715.93,2183.65L1705.54,2183.65L1705.54,2170.92L1718.62,2170.92L1718.62,2164.03L1697.97,2164.03L1697.97,2212.21ZM1754.1,2246.92L1757.58,2246.92L1757.58,2227.95L1761.21,2227.95L1761.21,2224.79L1750.46,2224.79L1750.46,2227.95L1754.1,2227.95L1754.1,2246.92ZM1724.29,2246.92L1727.51,2246.92L1728.14,2242.59L1732.1,2242.59L1732.1,2242.52L1732.73,2246.92L1736.21,2246.92L1732.6,2224.79L1727.89,2224.79L1724.29,2246.92ZM1728.56,2239.58L1730.07,2228.64L1730.14,2228.64L1731.68,2239.58L1728.56,2239.58Z" style="fill:rgb(105,194,71);"/>
            <clipPath id="_clip1">
                <path d="M1801.35,2026.6L1801.35,2251.07L1721.27,2280.77L1641.18,2251.07L1641.18,2026.6C1694.01,2006.8 1747.38,2006.44 1801.35,2026.6ZM1720.96,2212.21L1727.98,2212.21L1729.36,2202.78L1737.96,2202.78L1737.96,2202.65L1739.34,2212.21L1746.91,2212.21L1739.06,2164.03L1728.81,2164.03L1720.96,2212.21ZM1730.25,2196.25L1733.55,2172.43L1733.69,2172.43L1737.06,2196.25L1730.25,2196.25ZM1668.65,2148.1L1714.62,2148.1L1714.62,2133.64L1684.4,2133.64L1684.4,2131.48C1684.4,2124.39 1686.86,2119.33 1696.4,2109.21C1711.15,2093.6 1716.06,2082.9 1716.06,2070.91C1716.06,2054.71 1707.97,2045.46 1692.36,2045.46C1676.74,2045.46 1668.65,2054.71 1668.65,2070.91L1668.65,2080.74L1683.68,2080.74L1683.68,2069.89C1683.68,2062.66 1686.86,2059.92 1691.92,2059.92C1696.98,2059.92 1700.16,2062.38 1700.16,2071.48C1700.16,2080.88 1696.69,2088.54 1684.55,2101.41C1672.69,2113.84 1668.65,2122.66 1668.65,2137.12L1668.65,2148.1ZM1749.75,2149.55C1765.36,2149.55 1773.89,2140.3 1773.89,2124.1L1773.89,2070.91C1773.89,2054.71 1765.36,2045.46 1749.75,2045.46C1734.13,2045.46 1725.61,2054.71 1725.61,2070.91L1725.61,2124.1C1725.61,2140.3 1734.13,2149.55 1749.75,2149.55ZM1749.75,2135.09C1744.69,2135.09 1741.51,2132.34 1741.51,2125.12L1741.51,2069.89C1741.51,2062.66 1744.69,2059.92 1749.75,2059.92C1754.81,2059.92 1757.99,2062.66 1757.99,2069.89L1757.99,2125.12C1757.99,2132.34 1754.81,2135.09 1749.75,2135.09ZM1677.8,2212.21L1685.37,2212.21L1685.37,2191.7L1694.53,2164.03L1687.16,2164.03L1682,2181.72L1681.86,2181.72L1676.7,2164.03L1668.65,2164.03L1677.8,2191.7L1677.8,2212.21ZM1750.56,2212.21L1758.13,2212.21L1758.13,2191.57L1760.74,2191.57C1764.18,2191.57 1765.49,2193.01 1765.49,2197.49L1765.49,2206.3C1765.49,2210.22 1765.77,2210.97 1766.18,2212.21L1773.89,2212.21C1773.13,2210.43 1773.06,2208.7 1773.06,2206.36L1773.06,2197.9C1773.06,2192.46 1771.82,2188.88 1768.04,2187.71L1768.04,2187.57C1771.41,2186.2 1772.99,2183.03 1772.99,2178.07L1772.99,2175.12C1772.99,2167.68 1769.62,2164.03 1761.77,2164.03L1750.56,2164.03L1750.56,2212.21ZM1758.13,2184.68L1758.13,2170.92L1761.57,2170.92C1764.25,2170.92 1765.42,2172.43 1765.42,2175.87L1765.42,2179.59C1765.42,2183.44 1763.7,2184.68 1760.88,2184.68L1758.13,2184.68ZM1671.3,2246.92L1675.92,2246.92L1677.5,2232L1677.56,2232L1679.14,2246.92L1683.48,2246.92L1685.72,2224.79L1682.72,2224.79L1681.17,2241.8L1681.1,2241.8L1679.46,2224.79L1675.67,2224.79L1674.02,2241.8L1673.96,2241.8L1672.41,2224.79L1669.06,2224.79L1671.3,2246.92ZM1737.88,2246.92L1740.98,2246.92L1740.98,2230.76L1741.04,2230.76L1745.22,2246.92L1748.79,2246.92L1748.79,2224.79L1745.69,2224.79L1745.69,2238.03L1745.63,2238.03L1742.24,2224.79L1737.88,2224.79L1737.88,2246.92ZM1712.46,2246.92L1715.94,2246.92L1715.94,2237.43L1717.14,2237.43C1718.72,2237.43 1719.33,2238.1 1719.33,2240.15L1719.33,2244.2C1719.33,2246 1719.45,2246.35 1719.64,2246.92L1723.18,2246.92C1722.83,2246.1 1722.8,2245.3 1722.8,2244.23L1722.8,2240.34C1722.8,2237.84 1722.23,2236.2 1720.49,2235.66L1720.49,2235.6C1722.04,2234.97 1722.77,2233.51 1722.77,2231.24L1722.77,2229.88C1722.77,2226.46 1721.22,2224.79 1717.62,2224.79L1712.46,2224.79L1712.46,2246.92ZM1715.94,2234.27L1715.94,2227.95L1717.52,2227.95C1718.76,2227.95 1719.29,2228.64 1719.29,2230.22L1719.29,2231.93C1719.29,2233.7 1718.5,2234.27 1717.21,2234.27L1715.94,2234.27ZM1686.13,2246.92L1689.36,2246.92L1689.99,2242.59L1693.94,2242.59L1693.94,2242.52L1694.57,2246.92L1698.05,2246.92L1694.44,2224.79L1689.74,2224.79L1686.13,2246.92ZM1690.4,2239.58L1691.92,2228.64L1691.98,2228.64L1693.53,2239.58L1690.4,2239.58ZM1699.72,2246.92L1703.2,2246.92L1703.2,2237.43L1704.4,2237.43C1705.98,2237.43 1706.58,2238.1 1706.58,2240.15L1706.58,2244.2C1706.58,2246 1706.71,2246.35 1706.9,2246.92L1710.44,2246.92C1710.09,2246.1 1710.06,2245.3 1710.06,2244.23L1710.06,2240.34C1710.06,2237.84 1709.49,2236.2 1707.75,2235.66L1707.75,2235.6C1709.3,2234.97 1710.03,2233.51 1710.03,2231.24L1710.03,2229.88C1710.03,2226.46 1708.48,2224.79 1704.88,2224.79L1699.72,2224.79L1699.72,2246.92ZM1703.2,2234.27L1703.2,2227.95L1704.78,2227.95C1706.02,2227.95 1706.55,2228.64 1706.55,2230.22L1706.55,2231.93C1706.55,2233.7 1705.76,2234.27 1704.47,2234.27L1703.2,2234.27ZM1766.21,2246.92L1769.68,2246.92L1769.68,2237.5L1773.89,2224.79L1770.51,2224.79L1768.13,2232.91L1768.07,2232.91L1765.7,2224.79L1762,2224.79L1766.21,2237.5L1766.21,2246.92ZM1697.97,2212.21L1718.62,2212.21L1718.62,2205.33L1705.54,2205.33L1705.54,2190.53L1715.93,2190.53L1715.93,2183.65L1705.54,2183.65L1705.54,2170.92L1718.62,2170.92L1718.62,2164.03L1697.97,2164.03L1697.97,2212.21ZM1754.1,2246.92L1757.58,2246.92L1757.58,2227.95L1761.21,2227.95L1761.21,2224.79L1750.46,2224.79L1750.46,2227.95L1754.1,2227.95L1754.1,2246.92ZM1724.29,2246.92L1727.51,2246.92L1728.14,2242.59L1732.1,2242.59L1732.1,2242.52L1732.73,2246.92L1736.21,2246.92L1732.6,2224.79L1727.89,2224.79L1724.29,2246.92ZM1728.56,2239.58L1730.07,2228.64L1730.14,2228.64L1731.68,2239.58L1728.56,2239.58Z"/>
            </clipPath>
            <g clip-path="url(#_clip1)">
                <g transform="matrix(1,0,0,1.06473,-127.386,-131.177)">
                    <rect x="1768.57" y="1986.07" width="80.084" height="294.697" style="fill-opacity:0.1;"/>
                </g>
            </g>
        </g>
        <g transform="matrix(1.18432,0,0,1.12876,-189.882,-277.199)">
            <path d="M1801.35,2026.6L1801.35,2251.07L1721.27,2280.77L1641.18,2251.07L1641.18,2026.6C1694.01,2006.8 1747.38,2006.44 1801.35,2026.6ZM1794.84,2031.47C1745.29,2013.98 1696.25,2014.27 1647.7,2031.47L1647.7,2246.24L1721.27,2273.52L1794.84,2246.24L1794.84,2031.47Z" style="fill:rgb(107,188,77);"/>
        </g>
    </g>
</svg>
