<svg width="70" height="61" viewBox="0 0 70 61" fill="none" xmlns="http://www.w3.org/2000/svg">
<path d="M42.1953 24.5161H37.8797C35.6382 24.5161 33.3959 24.5377 31.1544 24.504C30.3998 24.4928 30.0769 24.7194 29.952 25.5092C29.5202 28.2384 28.9906 30.953 28.5108 33.6753C28.3514 34.5844 28.2288 35.5005 28.0822 36.4599C31.8418 36.4599 35.4556 36.4235 39.0677 36.4858C39.9554 36.5014 40.2029 36.1588 40.3247 35.3993C40.6667 33.2713 41.0617 31.151 41.4294 29.0265C41.6882 27.5351 41.9373 26.0421 42.1953 24.5161ZM18.054 44.9806C18.2799 43.6614 18.4954 42.3889 18.7165 41.1182C19.3614 37.414 20.003 33.709 20.6567 30.0057C20.9644 28.2652 21.2856 26.5274 21.6189 24.7912C22.5033 20.1805 27.3283 15.9599 32.7654 16.0447C38.8707 16.1398 44.9799 15.972 51.0875 15.9192C51.4168 15.9166 51.746 15.9192 52.2099 15.9192C51.9952 17.1909 51.8045 18.3509 51.6026 19.5092C50.8969 23.5672 50.1991 27.6268 49.4733 31.6813C49.1176 33.6675 48.842 35.6813 48.2933 37.6156C47.086 41.8716 42.9403 44.8811 38.5046 44.9019C33.3751 44.9261 28.2472 44.9564 23.1185 44.9797C21.4755 44.9875 19.8324 44.9806 18.054 44.9806Z" fill="white"/>
<path d="M12.5686 49.7049C13.0845 49.7049 13.4162 49.7092 13.747 49.704C16.5181 49.6599 19.2899 49.5907 22.0617 49.5751C27.4395 49.5431 32.819 49.5414 38.1984 49.5293C40.0377 49.5258 41.8338 49.2594 43.5289 48.5397C48.6288 46.3744 52.0599 42.7213 53.1166 37.2386C54.4432 30.3641 55.5703 23.4515 56.78 16.5544C57.082 14.8382 57.3736 13.1202 57.6845 11.3114C57.1701 11.2889 56.7576 11.2517 56.3458 11.256C51.8388 11.3062 47.3302 11.3771 42.8215 11.4143C39.235 11.4446 35.6493 11.4342 32.0635 11.4463C25.2549 11.4697 18.3894 17.0441 17.1437 23.7127C15.7314 31.2785 14.448 38.8675 13.1118 46.448C12.9291 47.4791 12.7665 48.5137 12.5686 49.7049ZM0.215576 60.2144C0.812399 56.8139 1.37958 53.589 1.94436 50.3632C3.04668 44.0682 4.12897 37.7698 5.25773 31.48C5.84254 28.2257 6.179 24.8805 7.19961 21.7603C10.8831 10.4982 18.7179 3.66432 30.4068 1.34945C32.6067 0.913463 34.9227 0.980936 37.1866 0.95758C43.1556 0.895296 49.1246 0.924708 55.0929 0.890972C59.6864 0.86502 64.2799 0.798411 68.8735 0.754294C69.2011 0.750833 69.5304 0.781975 70.0006 0.803602C69.7915 2.08734 69.6081 3.2837 69.399 4.47574C67.9506 12.7422 66.5278 21.012 65.0274 29.2681C64.3328 33.0933 63.9227 37.0466 62.6201 40.6694C58.8132 51.2516 51.1226 57.5682 39.9864 59.6711C39.0844 59.8407 38.1479 59.8865 37.2266 59.8952C29.6354 59.9678 22.0425 60.0137 14.4512 60.0777C10.082 60.114 5.71196 60.1685 1.34273 60.2135C1.01268 60.217 0.681819 60.2144 0.215576 60.2144Z" fill="white"/>
</svg>
